<svg width="20" height="22" viewBox="0 0 20 22" fill="none" xmlns="http://www.w3.org/2000/svg">
<path fill-rule="evenodd" clip-rule="evenodd" d="M6 0.25C6.41421 0.25 6.75 0.585786 6.75 1V2.25H13.25V1C13.25 0.585786 13.5858 0.25 14 0.25C14.4142 0.25 14.75 0.585786 14.75 1V2.25H17C18.5188 2.25 19.75 3.48122 19.75 5V19C19.75 20.5188 18.5188 21.75 17 21.75H3C1.48122 21.75 0.25 20.5188 0.25 19V5C0.25 3.48122 1.48122 2.25 3 2.25H5.25V1C5.25 0.585786 5.58579 0.25 6 0.25ZM3 3.75C2.30964 3.75 1.75 4.30964 1.75 5V19C1.75 19.6904 2.30964 20.25 3 20.25H17C17.6904 20.25 18.25 19.6904 18.25 19V5C18.25 4.30964 17.6904 3.75 17 3.75H3ZM10 7.75C9.30964 7.75 8.75 8.30964 8.75 9C8.75 9.69036 9.30964 10.25 10 10.25C10.6904 10.25 11.25 9.69036 11.25 9C11.25 8.30964 10.6904 7.75 10 7.75ZM7.25 9C7.25 7.48122 8.48122 6.25 10 6.25C11.5188 6.25 12.75 7.48122 12.75 9C12.75 10.5188 11.5188 11.75 10 11.75C8.48122 11.75 7.25 10.5188 7.25 9ZM5.05546 15.0555C5.57118 14.5397 6.27065 14.25 7 14.25H13C13.7293 14.25 14.4288 14.5397 14.9445 15.0555C15.4603 15.5712 15.75 16.2707 15.75 17C15.75 17.4142 15.4142 17.75 15 17.75C14.5858 17.75 14.25 17.4142 14.25 17C14.25 16.6685 14.1183 16.3505 13.8839 16.1161C13.6495 15.8817 13.3315 15.75 13 15.75H7C6.66848 15.75 6.35054 15.8817 6.11612 16.1161C5.8817 16.3505 5.75 16.6685 5.75 17C5.75 17.4142 5.41421 17.75 5 17.75C4.58579 17.75 4.25 17.4142 4.25 17C4.25 16.2707 4.53973 15.5712 5.05546 15.0555Z" fill="#869198"/>
</svg>
